<mxfile host="app.diagrams.net" modified="2024-04-27T12:17:43.198Z" agent="Mozilla/5.0 (Windows NT 10.0; Win64; x64) AppleWebKit/537.36 (KHTML, like Gecko) Chrome/124.0.0.0 Safari/537.36" etag="lML8pnzUXgznjrSsr13x" version="24.2.2" type="device">
  <diagram name="Page-1" id="wheWkL0AoxxiBxUbhJFq">
    <mxGraphModel dx="1050" dy="557" grid="1" gridSize="10" guides="1" tooltips="1" connect="1" arrows="1" fold="1" page="1" pageScale="1" pageWidth="827" pageHeight="1169" math="0" shadow="0">
      <root>
        <mxCell id="0" />
        <mxCell id="1" parent="0" />
        <mxCell id="SLbRJCfgujYiKdR8xFGR-87" value="" style="group;fontSize=13;fontStyle=1" vertex="1" connectable="0" parent="1">
          <mxGeometry x="20" y="40" width="790" height="1430" as="geometry" />
        </mxCell>
        <mxCell id="SLbRJCfgujYiKdR8xFGR-1" value="&lt;p style=&quot;margin: 4px 0px 0px; text-align: center; font-size: 13px;&quot;&gt;&lt;/p&gt;&lt;p style=&quot;font-size: 13px;&quot;&gt;&lt;/p&gt;" style="shape=rect;html=1;overflow=fill;whiteSpace=wrap;align=center;verticalAlign=top;fontStyle=1;fontSize=13;" vertex="1" parent="SLbRJCfgujYiKdR8xFGR-87">
          <mxGeometry y="30" width="290" height="1400" as="geometry" />
        </mxCell>
        <mxCell id="SLbRJCfgujYiKdR8xFGR-7" value="" style="group;fontStyle=1;fontSize=13;" vertex="1" connectable="0" parent="SLbRJCfgujYiKdR8xFGR-87">
          <mxGeometry x="560" y="30" width="230" height="1400" as="geometry" />
        </mxCell>
        <mxCell id="SLbRJCfgujYiKdR8xFGR-5" value="&lt;p style=&quot;margin: 4px 0px 0px; text-align: center; font-size: 13px;&quot;&gt;&lt;/p&gt;&lt;p style=&quot;font-size: 13px;&quot;&gt;&lt;/p&gt;" style="shape=rect;html=1;overflow=fill;whiteSpace=wrap;align=center;verticalAlign=top;fontStyle=1;fontSize=13;" vertex="1" parent="SLbRJCfgujYiKdR8xFGR-7">
          <mxGeometry width="230" height="1400.0000000000005" as="geometry" />
        </mxCell>
        <mxCell id="SLbRJCfgujYiKdR8xFGR-26" value="DATABASE" style="text;html=1;align=center;verticalAlign=middle;whiteSpace=wrap;rounded=0;fontStyle=1;fontSize=13;" vertex="1" parent="SLbRJCfgujYiKdR8xFGR-7">
          <mxGeometry x="90" y="13.207547169811324" width="60" height="39.622641509433976" as="geometry" />
        </mxCell>
        <mxCell id="SLbRJCfgujYiKdR8xFGR-55" value="Update user information in a secured database" style="rounded=1;whiteSpace=wrap;html=1;fontStyle=1;fontSize=13;" vertex="1" parent="SLbRJCfgujYiKdR8xFGR-7">
          <mxGeometry x="20" y="630" width="160" height="57.92" as="geometry" />
        </mxCell>
        <mxCell id="SLbRJCfgujYiKdR8xFGR-86" value="" style="edgeStyle=orthogonalEdgeStyle;rounded=0;orthogonalLoop=1;jettySize=auto;html=1;entryX=0.5;entryY=0;entryDx=0;entryDy=0;fontSize=13;fontStyle=1" edge="1" parent="SLbRJCfgujYiKdR8xFGR-7">
          <mxGeometry relative="1" as="geometry">
            <mxPoint x="99.5" y="585" as="sourcePoint" />
            <mxPoint x="99.5" y="630" as="targetPoint" />
            <Array as="points" />
          </mxGeometry>
        </mxCell>
        <mxCell id="SLbRJCfgujYiKdR8xFGR-3" value="&lt;p style=&quot;margin: 4px 0px 0px; text-align: center; font-size: 13px;&quot;&gt;&lt;/p&gt;&lt;p style=&quot;font-size: 13px;&quot;&gt;&lt;/p&gt;" style="shape=rect;html=1;overflow=fill;whiteSpace=wrap;align=center;verticalAlign=top;fontStyle=1;fontSize=13;" vertex="1" parent="SLbRJCfgujYiKdR8xFGR-87">
          <mxGeometry x="290" y="30" width="270" height="1400" as="geometry" />
        </mxCell>
        <mxCell id="SLbRJCfgujYiKdR8xFGR-22" value="Online land sales system" style="rounded=0;whiteSpace=wrap;html=1;fontStyle=1;align=center;fontSize=13;" vertex="1" parent="SLbRJCfgujYiKdR8xFGR-87">
          <mxGeometry width="790" height="30" as="geometry" />
        </mxCell>
        <mxCell id="SLbRJCfgujYiKdR8xFGR-23" value="" style="endArrow=none;html=1;rounded=0;exitX=0.007;exitY=0.038;exitDx=0;exitDy=0;exitPerimeter=0;fontSize=13;fontStyle=1" edge="1" parent="SLbRJCfgujYiKdR8xFGR-87" source="SLbRJCfgujYiKdR8xFGR-1">
          <mxGeometry width="50" height="50" relative="1" as="geometry">
            <mxPoint x="50" y="120" as="sourcePoint" />
            <mxPoint x="790" y="70" as="targetPoint" />
          </mxGeometry>
        </mxCell>
        <mxCell id="SLbRJCfgujYiKdR8xFGR-24" value="USER" style="text;html=1;align=center;verticalAlign=middle;whiteSpace=wrap;rounded=0;fontStyle=1;fontSize=13;" vertex="1" parent="SLbRJCfgujYiKdR8xFGR-87">
          <mxGeometry x="100" y="40" width="60" height="30" as="geometry" />
        </mxCell>
        <mxCell id="SLbRJCfgujYiKdR8xFGR-25" value="SYSTEM" style="text;html=1;align=center;verticalAlign=middle;whiteSpace=wrap;rounded=0;fontStyle=1;fontSize=13;" vertex="1" parent="SLbRJCfgujYiKdR8xFGR-87">
          <mxGeometry x="380" y="40" width="60" height="30" as="geometry" />
        </mxCell>
        <mxCell id="SLbRJCfgujYiKdR8xFGR-27" value="" style="ellipse;html=1;shape=startState;fontSize=13;fillColor=#000000;fontStyle=1" vertex="1" parent="SLbRJCfgujYiKdR8xFGR-87">
          <mxGeometry x="115" y="100" width="30" height="30" as="geometry" />
        </mxCell>
        <mxCell id="SLbRJCfgujYiKdR8xFGR-29" value="" style="endArrow=classic;html=1;rounded=0;exitX=1;exitY=0.5;exitDx=0;exitDy=0;entryX=0;entryY=0.25;entryDx=0;entryDy=0;fontSize=13;fontStyle=1" edge="1" parent="SLbRJCfgujYiKdR8xFGR-87" source="SLbRJCfgujYiKdR8xFGR-27" target="SLbRJCfgujYiKdR8xFGR-30">
          <mxGeometry width="50" height="50" relative="1" as="geometry">
            <mxPoint x="170" y="170" as="sourcePoint" />
            <mxPoint x="220" y="120" as="targetPoint" />
          </mxGeometry>
        </mxCell>
        <mxCell id="SLbRJCfgujYiKdR8xFGR-30" value="Display Homepage" style="rounded=1;whiteSpace=wrap;html=1;fontStyle=1;fontSize=13;" vertex="1" parent="SLbRJCfgujYiKdR8xFGR-87">
          <mxGeometry x="350" y="100" width="120" height="60" as="geometry" />
        </mxCell>
        <mxCell id="SLbRJCfgujYiKdR8xFGR-31" value="" style="endArrow=classic;html=1;rounded=0;exitX=0.5;exitY=1;exitDx=0;exitDy=0;entryX=1;entryY=0.5;entryDx=0;entryDy=0;fontSize=13;fontStyle=1" edge="1" parent="SLbRJCfgujYiKdR8xFGR-87" source="SLbRJCfgujYiKdR8xFGR-30" target="SLbRJCfgujYiKdR8xFGR-32">
          <mxGeometry width="50" height="50" relative="1" as="geometry">
            <mxPoint x="155" y="125" as="sourcePoint" />
            <mxPoint x="360" y="125" as="targetPoint" />
            <Array as="points">
              <mxPoint x="410" y="200" />
            </Array>
          </mxGeometry>
        </mxCell>
        <mxCell id="SLbRJCfgujYiKdR8xFGR-34" value="" style="edgeStyle=orthogonalEdgeStyle;rounded=0;orthogonalLoop=1;jettySize=auto;html=1;fontSize=13;fontStyle=1" edge="1" parent="SLbRJCfgujYiKdR8xFGR-87" source="SLbRJCfgujYiKdR8xFGR-32" target="SLbRJCfgujYiKdR8xFGR-33">
          <mxGeometry relative="1" as="geometry" />
        </mxCell>
        <mxCell id="SLbRJCfgujYiKdR8xFGR-32" value="Select lands&amp;nbsp;&lt;div style=&quot;font-size: 13px;&quot;&gt;filter preference&lt;/div&gt;" style="rounded=1;whiteSpace=wrap;html=1;fontStyle=1;fontSize=13;" vertex="1" parent="SLbRJCfgujYiKdR8xFGR-87">
          <mxGeometry x="70" y="170" width="120" height="60" as="geometry" />
        </mxCell>
        <mxCell id="SLbRJCfgujYiKdR8xFGR-36" value="" style="edgeStyle=orthogonalEdgeStyle;rounded=0;orthogonalLoop=1;jettySize=auto;html=1;fontSize=13;fontStyle=1" edge="1" parent="SLbRJCfgujYiKdR8xFGR-87" source="SLbRJCfgujYiKdR8xFGR-33">
          <mxGeometry relative="1" as="geometry">
            <mxPoint x="130" y="370" as="targetPoint" />
          </mxGeometry>
        </mxCell>
        <mxCell id="SLbRJCfgujYiKdR8xFGR-33" value="Press signup&amp;nbsp;&lt;div style=&quot;font-size: 13px;&quot;&gt;button&lt;/div&gt;" style="rounded=1;whiteSpace=wrap;html=1;fontStyle=1;fontSize=13;" vertex="1" parent="SLbRJCfgujYiKdR8xFGR-87">
          <mxGeometry x="70" y="270" width="120" height="60" as="geometry" />
        </mxCell>
        <mxCell id="SLbRJCfgujYiKdR8xFGR-41" value="" style="edgeStyle=orthogonalEdgeStyle;rounded=0;orthogonalLoop=1;jettySize=auto;html=1;fontSize=13;fontStyle=1" edge="1" parent="SLbRJCfgujYiKdR8xFGR-87" target="SLbRJCfgujYiKdR8xFGR-37">
          <mxGeometry relative="1" as="geometry">
            <mxPoint x="190" y="400" as="sourcePoint" />
          </mxGeometry>
        </mxCell>
        <mxCell id="SLbRJCfgujYiKdR8xFGR-37" value="Validate entered&amp;nbsp;&lt;div style=&quot;font-size: 13px;&quot;&gt;credentials&lt;/div&gt;" style="rounded=1;whiteSpace=wrap;html=1;fontStyle=1;fontSize=13;" vertex="1" parent="SLbRJCfgujYiKdR8xFGR-87">
          <mxGeometry x="350" y="370" width="120" height="60" as="geometry" />
        </mxCell>
        <mxCell id="SLbRJCfgujYiKdR8xFGR-42" value="&lt;span style=&quot;font-size: 13px;&quot;&gt;Enter user details&lt;/span&gt;" style="html=1;shape=mxgraph.sysml.callBehAct;whiteSpace=wrap;align=center;fontSize=13;fontStyle=1" vertex="1" parent="SLbRJCfgujYiKdR8xFGR-87">
          <mxGeometry x="70" y="370" width="120" height="70" as="geometry" />
        </mxCell>
        <mxCell id="SLbRJCfgujYiKdR8xFGR-50" value="" style="edgeStyle=orthogonalEdgeStyle;rounded=0;orthogonalLoop=1;jettySize=auto;html=1;fontSize=13;fontStyle=1" edge="1" parent="SLbRJCfgujYiKdR8xFGR-87" source="SLbRJCfgujYiKdR8xFGR-43" target="SLbRJCfgujYiKdR8xFGR-49">
          <mxGeometry relative="1" as="geometry">
            <Array as="points">
              <mxPoint x="410" y="610" />
              <mxPoint x="410" y="610" />
            </Array>
          </mxGeometry>
        </mxCell>
        <mxCell id="SLbRJCfgujYiKdR8xFGR-43" value="" style="shape=rhombus;html=1;verticalLabelPosition=bottom;verticalAlignment=top;fontSize=13;fontStyle=1" vertex="1" parent="SLbRJCfgujYiKdR8xFGR-87">
          <mxGeometry x="375" y="475" width="70" height="70" as="geometry" />
        </mxCell>
        <mxCell id="SLbRJCfgujYiKdR8xFGR-44" value="" style="edgeStyle=elbowEdgeStyle;html=1;elbow=horizontal;align=right;verticalAlign=bottom;endArrow=none;rounded=0;labelBackgroundColor=none;startArrow=open;startSize=12;fontSize=13;fontStyle=1" edge="1" source="SLbRJCfgujYiKdR8xFGR-43" parent="SLbRJCfgujYiKdR8xFGR-87">
          <mxGeometry relative="1" as="geometry">
            <mxPoint x="410" y="430" as="targetPoint" />
          </mxGeometry>
        </mxCell>
        <mxCell id="SLbRJCfgujYiKdR8xFGR-47" value="" style="edgeStyle=orthogonalEdgeStyle;rounded=0;orthogonalLoop=1;jettySize=auto;html=1;exitX=0;exitY=0.5;exitDx=0;exitDy=0;entryX=0.5;entryY=1;entryDx=0;entryDy=0;entryPerimeter=0;fontSize=13;fontStyle=1" edge="1" parent="SLbRJCfgujYiKdR8xFGR-87" source="SLbRJCfgujYiKdR8xFGR-43" target="SLbRJCfgujYiKdR8xFGR-42">
          <mxGeometry relative="1" as="geometry">
            <mxPoint x="200" y="410" as="sourcePoint" />
            <mxPoint x="360" y="410" as="targetPoint" />
          </mxGeometry>
        </mxCell>
        <mxCell id="SLbRJCfgujYiKdR8xFGR-48" value="[Not valid credentials]" style="text;html=1;align=center;verticalAlign=middle;whiteSpace=wrap;rounded=0;fontStyle=1;fontSize=13;" vertex="1" parent="SLbRJCfgujYiKdR8xFGR-87">
          <mxGeometry x="295" y="475" width="80" height="30" as="geometry" />
        </mxCell>
        <mxCell id="SLbRJCfgujYiKdR8xFGR-49" value="" style="html=1;points=[];perimeter=orthogonalPerimeter;fillColor=strokeColor;direction=south;fontSize=13;fontStyle=1" vertex="1" parent="SLbRJCfgujYiKdR8xFGR-87">
          <mxGeometry x="375" y="610" width="335" height="5" as="geometry" />
        </mxCell>
        <mxCell id="SLbRJCfgujYiKdR8xFGR-51" value="[valid credentials]" style="text;html=1;align=center;verticalAlign=middle;whiteSpace=wrap;rounded=0;fontStyle=1;fontSize=13;" vertex="1" parent="SLbRJCfgujYiKdR8xFGR-87">
          <mxGeometry x="410" y="550" width="110" height="30" as="geometry" />
        </mxCell>
        <mxCell id="SLbRJCfgujYiKdR8xFGR-53" value="" style="edgeStyle=orthogonalEdgeStyle;rounded=0;orthogonalLoop=1;jettySize=auto;html=1;entryX=0.5;entryY=0;entryDx=0;entryDy=0;fontSize=13;fontStyle=1" edge="1" parent="SLbRJCfgujYiKdR8xFGR-87" target="SLbRJCfgujYiKdR8xFGR-52">
          <mxGeometry relative="1" as="geometry">
            <mxPoint x="440" y="615" as="sourcePoint" />
            <mxPoint x="440" y="640" as="targetPoint" />
            <Array as="points" />
          </mxGeometry>
        </mxCell>
        <mxCell id="SLbRJCfgujYiKdR8xFGR-52" value="Sends verification&lt;br style=&quot;font-size: 13px;&quot;&gt;Email" style="rounded=1;whiteSpace=wrap;html=1;fontStyle=1;fontSize=13;" vertex="1" parent="SLbRJCfgujYiKdR8xFGR-87">
          <mxGeometry x="380" y="660" width="120" height="60" as="geometry" />
        </mxCell>
        <mxCell id="SLbRJCfgujYiKdR8xFGR-70" value="" style="edgeStyle=orthogonalEdgeStyle;rounded=0;orthogonalLoop=1;jettySize=auto;html=1;fontSize=13;fontStyle=1" edge="1" parent="SLbRJCfgujYiKdR8xFGR-87" source="SLbRJCfgujYiKdR8xFGR-58" target="SLbRJCfgujYiKdR8xFGR-69">
          <mxGeometry relative="1" as="geometry" />
        </mxCell>
        <mxCell id="SLbRJCfgujYiKdR8xFGR-58" value="Recieve confirmation Email" style="rounded=1;whiteSpace=wrap;html=1;fontStyle=1;fontSize=13;" vertex="1" parent="SLbRJCfgujYiKdR8xFGR-87">
          <mxGeometry x="71.97" y="760" width="118.0327868852459" height="60.00000000000001" as="geometry" />
        </mxCell>
        <mxCell id="SLbRJCfgujYiKdR8xFGR-57" value="" style="edgeStyle=orthogonalEdgeStyle;rounded=0;orthogonalLoop=1;jettySize=auto;html=1;exitX=0.5;exitY=1;exitDx=0;exitDy=0;fontSize=13;fontStyle=1" edge="1" parent="SLbRJCfgujYiKdR8xFGR-87" source="SLbRJCfgujYiKdR8xFGR-52">
          <mxGeometry relative="1" as="geometry">
            <mxPoint x="440" y="740" as="sourcePoint" />
            <mxPoint x="129" y="760" as="targetPoint" />
            <Array as="points">
              <mxPoint x="440" y="740" />
              <mxPoint x="129" y="740" />
            </Array>
          </mxGeometry>
        </mxCell>
        <mxCell id="SLbRJCfgujYiKdR8xFGR-68" value="" style="edgeStyle=elbowEdgeStyle;rounded=0;orthogonalLoop=1;jettySize=auto;html=1;entryX=1;entryY=0.5;entryDx=0;entryDy=0;fontSize=13;exitX=0.5;exitY=1;exitDx=0;exitDy=0;fontStyle=1" edge="1" parent="SLbRJCfgujYiKdR8xFGR-87" source="SLbRJCfgujYiKdR8xFGR-55" target="SLbRJCfgujYiKdR8xFGR-66">
          <mxGeometry relative="1" as="geometry">
            <mxPoint x="660" y="740" as="sourcePoint" />
            <mxPoint x="470" y="810" as="targetPoint" />
            <Array as="points">
              <mxPoint x="660" y="780" />
            </Array>
          </mxGeometry>
        </mxCell>
        <mxCell id="SLbRJCfgujYiKdR8xFGR-66" value="Activate user account" style="rounded=1;whiteSpace=wrap;html=1;fontStyle=1;fontSize=13;" vertex="1" parent="SLbRJCfgujYiKdR8xFGR-87">
          <mxGeometry x="380" y="760" width="118.0327868852459" height="60.00000000000001" as="geometry" />
        </mxCell>
        <mxCell id="SLbRJCfgujYiKdR8xFGR-69" value="Press confirmation" style="rounded=1;whiteSpace=wrap;html=1;fontStyle=1;fontSize=13;" vertex="1" parent="SLbRJCfgujYiKdR8xFGR-87">
          <mxGeometry x="71.97" y="850" width="118.0327868852459" height="60.00000000000001" as="geometry" />
        </mxCell>
        <mxCell id="SLbRJCfgujYiKdR8xFGR-71" value="" style="html=1;points=[];perimeter=orthogonalPerimeter;fillColor=strokeColor;direction=south;fontSize=13;fontStyle=1" vertex="1" parent="SLbRJCfgujYiKdR8xFGR-87">
          <mxGeometry x="110" y="970" width="360" height="5" as="geometry" />
        </mxCell>
        <mxCell id="SLbRJCfgujYiKdR8xFGR-72" value="" style="edgeStyle=orthogonalEdgeStyle;rounded=0;orthogonalLoop=1;jettySize=auto;html=1;entryX=0;entryY=0.943;entryDx=0;entryDy=0;entryPerimeter=0;fontSize=13;fontStyle=1" edge="1" parent="SLbRJCfgujYiKdR8xFGR-87" target="SLbRJCfgujYiKdR8xFGR-71">
          <mxGeometry relative="1" as="geometry">
            <mxPoint x="130.49" y="910" as="sourcePoint" />
            <mxPoint x="130.49" y="940" as="targetPoint" />
            <Array as="points" />
          </mxGeometry>
        </mxCell>
        <mxCell id="SLbRJCfgujYiKdR8xFGR-73" value="" style="edgeStyle=orthogonalEdgeStyle;rounded=0;orthogonalLoop=1;jettySize=auto;html=1;entryX=0.44;entryY=0.084;entryDx=0;entryDy=0;entryPerimeter=0;fontSize=13;fontStyle=1" edge="1" parent="SLbRJCfgujYiKdR8xFGR-87" target="SLbRJCfgujYiKdR8xFGR-71">
          <mxGeometry relative="1" as="geometry">
            <mxPoint x="438.51" y="820" as="sourcePoint" />
            <mxPoint x="439" y="960" as="targetPoint" />
            <Array as="points" />
          </mxGeometry>
        </mxCell>
        <mxCell id="SLbRJCfgujYiKdR8xFGR-74" value="" style="edgeStyle=orthogonalEdgeStyle;rounded=0;orthogonalLoop=1;jettySize=auto;html=1;entryX=0.5;entryY=0;entryDx=0;entryDy=0;fontSize=13;fontStyle=1" edge="1" parent="SLbRJCfgujYiKdR8xFGR-87" target="SLbRJCfgujYiKdR8xFGR-75">
          <mxGeometry relative="1" as="geometry">
            <mxPoint x="380" y="975" as="sourcePoint" />
            <mxPoint x="380.51" y="1035" as="targetPoint" />
            <Array as="points" />
          </mxGeometry>
        </mxCell>
        <mxCell id="SLbRJCfgujYiKdR8xFGR-75" value="Navigate to&amp;nbsp;&lt;div style=&quot;font-size: 13px;&quot;&gt;&quot;All lands&quot; page&lt;/div&gt;" style="rounded=1;whiteSpace=wrap;html=1;fontStyle=1;fontSize=13;" vertex="1" parent="SLbRJCfgujYiKdR8xFGR-87">
          <mxGeometry x="321.97" y="1040" width="118.0327868852459" height="60.00000000000001" as="geometry" />
        </mxCell>
        <mxCell id="SLbRJCfgujYiKdR8xFGR-76" value="" style="edgeStyle=elbowEdgeStyle;rounded=0;orthogonalLoop=1;jettySize=auto;html=1;entryX=1;entryY=0.5;entryDx=0;entryDy=0;fontSize=13;fontStyle=1" edge="1" parent="SLbRJCfgujYiKdR8xFGR-87" target="SLbRJCfgujYiKdR8xFGR-77">
          <mxGeometry relative="1" as="geometry">
            <mxPoint x="379.99" y="1100" as="sourcePoint" />
            <mxPoint x="220" y="1160" as="targetPoint" />
            <Array as="points">
              <mxPoint x="380" y="1140" />
            </Array>
          </mxGeometry>
        </mxCell>
        <mxCell id="SLbRJCfgujYiKdR8xFGR-77" value="Select preferred&lt;div style=&quot;font-size: 13px;&quot;&gt;land&lt;/div&gt;" style="rounded=1;whiteSpace=wrap;html=1;fontStyle=1;fontSize=13;" vertex="1" parent="SLbRJCfgujYiKdR8xFGR-87">
          <mxGeometry x="70" y="1110" width="118.0327868852459" height="60.00000000000001" as="geometry" />
        </mxCell>
        <mxCell id="SLbRJCfgujYiKdR8xFGR-78" value="Display land details" style="rounded=1;whiteSpace=wrap;html=1;fontStyle=1;fontSize=13;" vertex="1" parent="SLbRJCfgujYiKdR8xFGR-87">
          <mxGeometry x="321.97" y="1190" width="118.0327868852459" height="60.00000000000001" as="geometry" />
        </mxCell>
        <mxCell id="SLbRJCfgujYiKdR8xFGR-79" value="" style="edgeStyle=elbowEdgeStyle;rounded=0;orthogonalLoop=1;jettySize=auto;html=1;entryX=0;entryY=0.5;entryDx=0;entryDy=0;fontSize=13;fontStyle=1" edge="1" parent="SLbRJCfgujYiKdR8xFGR-87" target="SLbRJCfgujYiKdR8xFGR-78">
          <mxGeometry relative="1" as="geometry">
            <mxPoint x="131.99" y="1170" as="sourcePoint" />
            <mxPoint x="-60" y="1210" as="targetPoint" />
            <Array as="points">
              <mxPoint x="132" y="1210" />
            </Array>
          </mxGeometry>
        </mxCell>
        <mxCell id="SLbRJCfgujYiKdR8xFGR-80" value="" style="edgeStyle=elbowEdgeStyle;rounded=0;orthogonalLoop=1;jettySize=auto;html=1;entryX=1;entryY=0.5;entryDx=0;entryDy=0;fontSize=13;fontStyle=1" edge="1" parent="SLbRJCfgujYiKdR8xFGR-87" target="SLbRJCfgujYiKdR8xFGR-81">
          <mxGeometry relative="1" as="geometry">
            <mxPoint x="379.99" y="1250" as="sourcePoint" />
            <mxPoint x="220" y="1310" as="targetPoint" />
            <Array as="points">
              <mxPoint x="380" y="1290" />
            </Array>
          </mxGeometry>
        </mxCell>
        <mxCell id="SLbRJCfgujYiKdR8xFGR-83" value="" style="edgeStyle=elbowEdgeStyle;rounded=0;orthogonalLoop=1;jettySize=auto;html=1;fontSize=13;fontStyle=1" edge="1" parent="SLbRJCfgujYiKdR8xFGR-87" source="SLbRJCfgujYiKdR8xFGR-81" target="SLbRJCfgujYiKdR8xFGR-82">
          <mxGeometry relative="1" as="geometry" />
        </mxCell>
        <mxCell id="SLbRJCfgujYiKdR8xFGR-81" value="Request to purchuse land" style="rounded=1;whiteSpace=wrap;html=1;fontStyle=1;fontSize=13;" vertex="1" parent="SLbRJCfgujYiKdR8xFGR-87">
          <mxGeometry x="70" y="1260" width="118.0327868852459" height="60.00000000000001" as="geometry" />
        </mxCell>
        <mxCell id="SLbRJCfgujYiKdR8xFGR-82" value="" style="ellipse;html=1;shape=endState;fontSize=13;fillColor=#000000;fontStyle=1" vertex="1" parent="SLbRJCfgujYiKdR8xFGR-87">
          <mxGeometry x="116" y="1370" width="30" height="30" as="geometry" />
        </mxCell>
        <mxCell id="SLbRJCfgujYiKdR8xFGR-84" value="Start" style="text;html=1;align=center;verticalAlign=middle;whiteSpace=wrap;rounded=0;fontStyle=1;fontSize=13;" vertex="1" parent="SLbRJCfgujYiKdR8xFGR-87">
          <mxGeometry x="100" y="80" width="60" height="30" as="geometry" />
        </mxCell>
        <mxCell id="SLbRJCfgujYiKdR8xFGR-85" value="Stop" style="text;html=1;align=center;verticalAlign=middle;whiteSpace=wrap;rounded=0;fontStyle=1;fontSize=13;" vertex="1" parent="SLbRJCfgujYiKdR8xFGR-87">
          <mxGeometry x="101" y="1400" width="60" height="30" as="geometry" />
        </mxCell>
        <mxCell id="SLbRJCfgujYiKdR8xFGR-88" value="" style="group;fontSize=13;fontStyle=1" vertex="1" connectable="0" parent="1">
          <mxGeometry x="20" y="1620" width="790" height="1430" as="geometry" />
        </mxCell>
        <mxCell id="SLbRJCfgujYiKdR8xFGR-89" value="&lt;p style=&quot;margin: 4px 0px 0px; text-align: center; font-size: 13px;&quot;&gt;&lt;/p&gt;&lt;p style=&quot;font-size: 13px;&quot;&gt;&lt;/p&gt;" style="shape=rect;html=1;overflow=fill;whiteSpace=wrap;align=center;verticalAlign=top;fontStyle=1;fontSize=13;" vertex="1" parent="SLbRJCfgujYiKdR8xFGR-88">
          <mxGeometry y="30" width="410" height="970" as="geometry" />
        </mxCell>
        <mxCell id="SLbRJCfgujYiKdR8xFGR-95" value="&lt;p style=&quot;margin: 4px 0px 0px; text-align: center; font-size: 13px;&quot;&gt;&lt;/p&gt;&lt;p style=&quot;font-size: 13px;&quot;&gt;&lt;/p&gt;" style="shape=rect;html=1;overflow=fill;whiteSpace=wrap;align=center;verticalAlign=top;fontStyle=1;fontSize=13;" vertex="1" parent="SLbRJCfgujYiKdR8xFGR-88">
          <mxGeometry x="410" y="30" width="380" height="970" as="geometry" />
        </mxCell>
        <mxCell id="SLbRJCfgujYiKdR8xFGR-96" value="Online land sales system" style="rounded=0;whiteSpace=wrap;html=1;fontStyle=1;align=center;fontSize=13;" vertex="1" parent="SLbRJCfgujYiKdR8xFGR-88">
          <mxGeometry width="790" height="30" as="geometry" />
        </mxCell>
        <mxCell id="SLbRJCfgujYiKdR8xFGR-97" value="" style="endArrow=none;html=1;rounded=0;exitX=0.007;exitY=0.038;exitDx=0;exitDy=0;exitPerimeter=0;fontSize=13;entryX=0.998;entryY=0.026;entryDx=0;entryDy=0;entryPerimeter=0;fontStyle=1" edge="1" parent="SLbRJCfgujYiKdR8xFGR-88" target="SLbRJCfgujYiKdR8xFGR-95">
          <mxGeometry width="50" height="50" relative="1" as="geometry">
            <mxPoint x="-2.708944180085382e-14" y="69.99999999999982" as="sourcePoint" />
            <mxPoint x="557.97" y="66.8" as="targetPoint" />
          </mxGeometry>
        </mxCell>
        <mxCell id="SLbRJCfgujYiKdR8xFGR-98" value="USER" style="text;html=1;align=center;verticalAlign=middle;whiteSpace=wrap;rounded=0;fontStyle=1;fontSize=13;" vertex="1" parent="SLbRJCfgujYiKdR8xFGR-88">
          <mxGeometry x="100" y="40" width="60" height="30" as="geometry" />
        </mxCell>
        <mxCell id="SLbRJCfgujYiKdR8xFGR-99" value="SYSTEM" style="text;html=1;align=center;verticalAlign=middle;whiteSpace=wrap;rounded=0;fontStyle=1;fontSize=13;" vertex="1" parent="SLbRJCfgujYiKdR8xFGR-88">
          <mxGeometry x="520" y="40" width="60" height="30" as="geometry" />
        </mxCell>
        <mxCell id="SLbRJCfgujYiKdR8xFGR-100" value="" style="ellipse;html=1;shape=startState;fontSize=13;fillColor=#000000;fontStyle=1" vertex="1" parent="SLbRJCfgujYiKdR8xFGR-88">
          <mxGeometry x="115" y="100" width="30" height="30" as="geometry" />
        </mxCell>
        <mxCell id="SLbRJCfgujYiKdR8xFGR-101" value="" style="endArrow=classic;html=1;rounded=0;exitX=1;exitY=0.5;exitDx=0;exitDy=0;entryX=0;entryY=0.25;entryDx=0;entryDy=0;fontSize=13;fontStyle=1" edge="1" parent="SLbRJCfgujYiKdR8xFGR-88" source="SLbRJCfgujYiKdR8xFGR-100" target="SLbRJCfgujYiKdR8xFGR-102">
          <mxGeometry width="50" height="50" relative="1" as="geometry">
            <mxPoint x="170" y="170" as="sourcePoint" />
            <mxPoint x="220" y="120" as="targetPoint" />
          </mxGeometry>
        </mxCell>
        <mxCell id="SLbRJCfgujYiKdR8xFGR-102" value="Display a register&lt;div style=&quot;font-size: 13px;&quot;&gt;form&lt;/div&gt;" style="rounded=1;whiteSpace=wrap;html=1;fontStyle=1;fontSize=13;" vertex="1" parent="SLbRJCfgujYiKdR8xFGR-88">
          <mxGeometry x="510" y="100" width="120" height="60" as="geometry" />
        </mxCell>
        <mxCell id="SLbRJCfgujYiKdR8xFGR-120" value="" style="edgeStyle=orthogonalEdgeStyle;rounded=0;orthogonalLoop=1;jettySize=auto;html=1;fontSize=13;" edge="1" parent="SLbRJCfgujYiKdR8xFGR-88" target="SLbRJCfgujYiKdR8xFGR-125">
          <mxGeometry relative="1" as="geometry">
            <mxPoint x="131" y="820" as="sourcePoint" />
          </mxGeometry>
        </mxCell>
        <mxCell id="SLbRJCfgujYiKdR8xFGR-138" value="" style="ellipse;html=1;shape=endState;fontSize=13;fillColor=#000000;fontStyle=1" vertex="1" parent="SLbRJCfgujYiKdR8xFGR-88">
          <mxGeometry x="175" y="910" width="30" height="30" as="geometry" />
        </mxCell>
        <mxCell id="SLbRJCfgujYiKdR8xFGR-139" value="Start" style="text;html=1;align=center;verticalAlign=middle;whiteSpace=wrap;rounded=0;fontStyle=1;fontSize=13;" vertex="1" parent="SLbRJCfgujYiKdR8xFGR-88">
          <mxGeometry x="100" y="80" width="60" height="30" as="geometry" />
        </mxCell>
        <mxCell id="SLbRJCfgujYiKdR8xFGR-140" value="Stop" style="text;html=1;align=center;verticalAlign=middle;whiteSpace=wrap;rounded=0;fontStyle=1;fontSize=13;" vertex="1" parent="SLbRJCfgujYiKdR8xFGR-88">
          <mxGeometry x="160" y="940" width="60" height="30" as="geometry" />
        </mxCell>
        <mxCell id="SLbRJCfgujYiKdR8xFGR-194" value="" style="endArrow=classic;html=1;rounded=0;fontSize=13;edgeStyle=elbowEdgeStyle;fontStyle=1;entryX=0.2;entryY=0.562;entryDx=0;entryDy=0;entryPerimeter=0;exitX=0.5;exitY=1;exitDx=0;exitDy=0;elbow=vertical;" edge="1" parent="SLbRJCfgujYiKdR8xFGR-88" source="SLbRJCfgujYiKdR8xFGR-102" target="SLbRJCfgujYiKdR8xFGR-195">
          <mxGeometry width="50" height="50" relative="1" as="geometry">
            <mxPoint x="155" y="125" as="sourcePoint" />
            <mxPoint x="183" y="190" as="targetPoint" />
          </mxGeometry>
        </mxCell>
        <mxCell id="SLbRJCfgujYiKdR8xFGR-195" value="" style="html=1;points=[];perimeter=orthogonalPerimeter;fillColor=strokeColor;direction=south;fontSize=13;fontStyle=1" vertex="1" parent="SLbRJCfgujYiKdR8xFGR-88">
          <mxGeometry x="25" y="220" width="360" height="5" as="geometry" />
        </mxCell>
        <mxCell id="SLbRJCfgujYiKdR8xFGR-197" value="" style="endArrow=classic;html=1;rounded=0;elbow=vertical;exitX=2;exitY=0.875;exitDx=0;exitDy=0;exitPerimeter=0;entryX=0.5;entryY=0;entryDx=0;entryDy=0;" edge="1" parent="SLbRJCfgujYiKdR8xFGR-88" source="SLbRJCfgujYiKdR8xFGR-195" target="SLbRJCfgujYiKdR8xFGR-198">
          <mxGeometry width="50" height="50" relative="1" as="geometry">
            <mxPoint x="80" y="350" as="sourcePoint" />
            <mxPoint x="140" y="290" as="targetPoint" />
          </mxGeometry>
        </mxCell>
        <mxCell id="SLbRJCfgujYiKdR8xFGR-198" value="Enter username" style="rounded=1;whiteSpace=wrap;html=1;fontStyle=1;fontSize=13;" vertex="1" parent="SLbRJCfgujYiKdR8xFGR-88">
          <mxGeometry x="10" y="270" width="120" height="60" as="geometry" />
        </mxCell>
        <mxCell id="SLbRJCfgujYiKdR8xFGR-199" value="Enter Email" style="rounded=1;whiteSpace=wrap;html=1;fontStyle=1;fontSize=13;" vertex="1" parent="SLbRJCfgujYiKdR8xFGR-88">
          <mxGeometry x="240" y="270" width="120" height="60" as="geometry" />
        </mxCell>
        <mxCell id="SLbRJCfgujYiKdR8xFGR-200" value="" style="endArrow=classic;html=1;rounded=0;elbow=vertical;exitX=2;exitY=0.875;exitDx=0;exitDy=0;exitPerimeter=0;entryX=0.5;entryY=0;entryDx=0;entryDy=0;" edge="1" parent="SLbRJCfgujYiKdR8xFGR-88">
          <mxGeometry width="50" height="50" relative="1" as="geometry">
            <mxPoint x="300" y="230" as="sourcePoint" />
            <mxPoint x="300" y="270" as="targetPoint" />
          </mxGeometry>
        </mxCell>
        <mxCell id="SLbRJCfgujYiKdR8xFGR-202" value="" style="shape=rhombus;html=1;verticalLabelPosition=bottom;verticalAlignment=top;" vertex="1" parent="SLbRJCfgujYiKdR8xFGR-88">
          <mxGeometry x="530" y="370" width="80" height="80" as="geometry" />
        </mxCell>
        <mxCell id="SLbRJCfgujYiKdR8xFGR-208" value="" style="endArrow=classic;html=1;rounded=0;fontSize=13;edgeStyle=elbowEdgeStyle;fontStyle=1;entryX=0.5;entryY=0;entryDx=0;entryDy=0;exitX=0.5;exitY=1;exitDx=0;exitDy=0;" edge="1" parent="SLbRJCfgujYiKdR8xFGR-88" target="SLbRJCfgujYiKdR8xFGR-202">
          <mxGeometry width="50" height="50" relative="1" as="geometry">
            <mxPoint x="360" y="290" as="sourcePoint" />
            <mxPoint x="-27" y="351" as="targetPoint" />
            <Array as="points">
              <mxPoint x="570" y="300" />
            </Array>
          </mxGeometry>
        </mxCell>
        <mxCell id="SLbRJCfgujYiKdR8xFGR-209" value="" style="endArrow=classic;html=1;rounded=0;exitX=0;exitY=0.5;exitDx=0;exitDy=0;entryX=1;entryY=0.5;entryDx=0;entryDy=0;" edge="1" parent="SLbRJCfgujYiKdR8xFGR-88" source="SLbRJCfgujYiKdR8xFGR-202" target="SLbRJCfgujYiKdR8xFGR-210">
          <mxGeometry width="50" height="50" relative="1" as="geometry">
            <mxPoint x="290" y="460" as="sourcePoint" />
            <mxPoint x="420" y="390" as="targetPoint" />
          </mxGeometry>
        </mxCell>
        <mxCell id="SLbRJCfgujYiKdR8xFGR-210" value="Modify Email" style="rounded=1;whiteSpace=wrap;html=1;fontStyle=1;fontSize=13;" vertex="1" parent="SLbRJCfgujYiKdR8xFGR-88">
          <mxGeometry x="240" y="380" width="120" height="60" as="geometry" />
        </mxCell>
        <mxCell id="SLbRJCfgujYiKdR8xFGR-211" value="[Invalid]" style="text;html=1;align=center;verticalAlign=middle;whiteSpace=wrap;rounded=0;fontStyle=1;fontSize=13;" vertex="1" parent="SLbRJCfgujYiKdR8xFGR-88">
          <mxGeometry x="435" y="380" width="60" height="30" as="geometry" />
        </mxCell>
        <mxCell id="SLbRJCfgujYiKdR8xFGR-212" value="" style="endArrow=classic;html=1;rounded=0;exitX=0.5;exitY=1;exitDx=0;exitDy=0;entryX=-0.6;entryY=0.262;entryDx=0;entryDy=0;edgeStyle=orthogonalEdgeStyle;entryPerimeter=0;" edge="1" parent="SLbRJCfgujYiKdR8xFGR-88" source="SLbRJCfgujYiKdR8xFGR-202" target="SLbRJCfgujYiKdR8xFGR-213">
          <mxGeometry width="50" height="50" relative="1" as="geometry">
            <mxPoint x="530" y="500" as="sourcePoint" />
            <mxPoint x="360" y="500" as="targetPoint" />
          </mxGeometry>
        </mxCell>
        <mxCell id="SLbRJCfgujYiKdR8xFGR-213" value="" style="html=1;points=[];perimeter=orthogonalPerimeter;fillColor=strokeColor;direction=south;fontSize=13;fontStyle=1" vertex="1" parent="SLbRJCfgujYiKdR8xFGR-88">
          <mxGeometry x="25" y="520" width="360" height="5" as="geometry" />
        </mxCell>
        <mxCell id="SLbRJCfgujYiKdR8xFGR-214" value="[valid]" style="text;html=1;align=center;verticalAlign=middle;whiteSpace=wrap;rounded=0;fontStyle=1;fontSize=13;" vertex="1" parent="SLbRJCfgujYiKdR8xFGR-88">
          <mxGeometry x="435" y="460" width="60" height="30" as="geometry" />
        </mxCell>
        <mxCell id="SLbRJCfgujYiKdR8xFGR-215" value="" style="endArrow=classic;html=1;rounded=0;exitX=0.5;exitY=1;exitDx=0;exitDy=0;entryX=0.52;entryY=0.875;entryDx=0;entryDy=0;entryPerimeter=0;" edge="1" parent="SLbRJCfgujYiKdR8xFGR-88" source="SLbRJCfgujYiKdR8xFGR-198" target="SLbRJCfgujYiKdR8xFGR-213">
          <mxGeometry width="50" height="50" relative="1" as="geometry">
            <mxPoint x="90" y="430" as="sourcePoint" />
            <mxPoint x="140" y="380" as="targetPoint" />
          </mxGeometry>
        </mxCell>
        <mxCell id="SLbRJCfgujYiKdR8xFGR-216" value="" style="endArrow=classic;html=1;rounded=0;exitX=0.5;exitY=1;exitDx=0;exitDy=0;" edge="1" parent="SLbRJCfgujYiKdR8xFGR-88">
          <mxGeometry width="50" height="50" relative="1" as="geometry">
            <mxPoint x="190" y="525" as="sourcePoint" />
            <mxPoint x="190" y="610" as="targetPoint" />
          </mxGeometry>
        </mxCell>
        <mxCell id="SLbRJCfgujYiKdR8xFGR-217" value="Enter password with security requirment" style="rounded=1;whiteSpace=wrap;html=1;fontStyle=1;fontSize=13;" vertex="1" parent="SLbRJCfgujYiKdR8xFGR-88">
          <mxGeometry x="120" y="610" width="140" height="60" as="geometry" />
        </mxCell>
        <mxCell id="SLbRJCfgujYiKdR8xFGR-218" value="" style="shape=rhombus;html=1;verticalLabelPosition=bottom;verticalAlignment=top;" vertex="1" parent="SLbRJCfgujYiKdR8xFGR-88">
          <mxGeometry x="530" y="670" width="80" height="80" as="geometry" />
        </mxCell>
        <mxCell id="SLbRJCfgujYiKdR8xFGR-219" value="" style="endArrow=classic;html=1;rounded=0;fontSize=13;edgeStyle=elbowEdgeStyle;fontStyle=1;entryX=0.5;entryY=0;entryDx=0;entryDy=0;exitX=0.5;exitY=1;exitDx=0;exitDy=0;" edge="1" parent="SLbRJCfgujYiKdR8xFGR-88" target="SLbRJCfgujYiKdR8xFGR-218">
          <mxGeometry width="50" height="50" relative="1" as="geometry">
            <mxPoint x="260" y="640" as="sourcePoint" />
            <mxPoint x="470" y="720" as="targetPoint" />
            <Array as="points">
              <mxPoint x="570" y="650" />
            </Array>
          </mxGeometry>
        </mxCell>
        <mxCell id="SLbRJCfgujYiKdR8xFGR-220" value="" style="endArrow=classic;html=1;rounded=0;exitX=0;exitY=0.5;exitDx=0;exitDy=0;entryX=0.5;entryY=1;entryDx=0;entryDy=0;edgeStyle=orthogonalEdgeStyle;" edge="1" parent="SLbRJCfgujYiKdR8xFGR-88" target="SLbRJCfgujYiKdR8xFGR-217">
          <mxGeometry width="50" height="50" relative="1" as="geometry">
            <mxPoint x="530" y="709.5" as="sourcePoint" />
            <mxPoint x="360" y="709.5" as="targetPoint" />
          </mxGeometry>
        </mxCell>
        <mxCell id="SLbRJCfgujYiKdR8xFGR-221" value="[Not meeting the minimum requirment]" style="text;html=1;align=center;verticalAlign=middle;whiteSpace=wrap;rounded=0;fontStyle=1;fontSize=13;" vertex="1" parent="SLbRJCfgujYiKdR8xFGR-88">
          <mxGeometry x="230" y="680" width="180" height="30" as="geometry" />
        </mxCell>
        <mxCell id="SLbRJCfgujYiKdR8xFGR-222" value="" style="endArrow=classic;html=1;rounded=0;exitX=0.5;exitY=1;exitDx=0;exitDy=0;entryX=0.5;entryY=0;entryDx=0;entryDy=0;edgeStyle=orthogonalEdgeStyle;" edge="1" parent="SLbRJCfgujYiKdR8xFGR-88" source="SLbRJCfgujYiKdR8xFGR-218" target="SLbRJCfgujYiKdR8xFGR-223">
          <mxGeometry width="50" height="50" relative="1" as="geometry">
            <mxPoint x="570" y="779.5" as="sourcePoint" />
            <mxPoint x="230" y="740" as="targetPoint" />
            <Array as="points">
              <mxPoint x="570" y="760" />
              <mxPoint x="190" y="760" />
            </Array>
          </mxGeometry>
        </mxCell>
        <mxCell id="SLbRJCfgujYiKdR8xFGR-225" value="" style="edgeStyle=orthogonalEdgeStyle;rounded=0;orthogonalLoop=1;jettySize=auto;html=1;" edge="1" parent="SLbRJCfgujYiKdR8xFGR-88" source="SLbRJCfgujYiKdR8xFGR-223" target="SLbRJCfgujYiKdR8xFGR-138">
          <mxGeometry relative="1" as="geometry" />
        </mxCell>
        <mxCell id="SLbRJCfgujYiKdR8xFGR-223" value="Submit the form" style="rounded=1;whiteSpace=wrap;html=1;fontStyle=1;fontSize=13;" vertex="1" parent="SLbRJCfgujYiKdR8xFGR-88">
          <mxGeometry x="120" y="790" width="140" height="60" as="geometry" />
        </mxCell>
        <mxCell id="SLbRJCfgujYiKdR8xFGR-224" value="[meet the minimum requirment]" style="text;html=1;align=center;verticalAlign=middle;whiteSpace=wrap;rounded=0;fontStyle=1;fontSize=13;" vertex="1" parent="SLbRJCfgujYiKdR8xFGR-88">
          <mxGeometry x="230" y="730" width="180" height="30" as="geometry" />
        </mxCell>
        <mxCell id="SLbRJCfgujYiKdR8xFGR-142" value="Swim lane for sub activity" style="text;strokeColor=none;fillColor=none;html=1;fontSize=18;fontStyle=1;verticalAlign=middle;align=center;" vertex="1" parent="1">
          <mxGeometry x="120" y="1560" width="100" height="40" as="geometry" />
        </mxCell>
      </root>
    </mxGraphModel>
  </diagram>
</mxfile>
